<?xml version="1.0" standalone="no"?>
<!DOCTYPE svg PUBLIC "-//W3C//DTD SVG 20010904//EN"
 "http://www.w3.org/TR/2001/REC-SVG-20010904/DTD/svg10.dtd">
<svg version="1.0" xmlns="http://www.w3.org/2000/svg"
 width="400.000000pt" height="244.000000pt" viewBox="0 0 400.000000 244.000000"
 preserveAspectRatio="xMidYMid meet">

<g transform="translate(0.000000,244.000000) scale(0.100000,-0.100000)"
fill="#000000" stroke="none">
<path d="M2766 2209 l-748 -229 -220 25 c-205 23 -226 28 -321 66 -114 46
-186 57 -241 39 -57 -18 -135 -98 -228 -232 -102 -145 -133 -187 -293 -384
-66 -82 -162 -210 -212 -285 -53 -78 -116 -158 -151 -190 -66 -61 -181 -126
-284 -159 -38 -12 -68 -27 -68 -33 0 -7 5 -29 11 -50 10 -36 12 -38 42 -32 56
12 180 65 252 108 100 59 188 152 293 309 50 75 163 226 250 335 87 109 193
248 236 308 94 133 149 191 192 205 28 10 47 5 152 -34 104 -39 144 -48 296
-67 l176 -23 0 -41 c0 -23 7 -63 16 -89 9 -26 13 -51 8 -55 -5 -4 -31 -16 -59
-26 -27 -10 -80 -33 -117 -51 -37 -19 -71 -34 -75 -34 -13 0 -63 89 -72 129
l-9 36 -1 -40 c0 -22 8 -64 18 -93 l18 -53 -31 -23 c-65 -49 -117 -79 -124
-72 -4 4 -14 37 -23 74 l-17 67 -1 -58 -1 -59 -38 49 c-55 71 -69 94 -92 159
l-21 59 4 -66 c4 -54 13 -84 51 -160 25 -51 46 -103 46 -114 0 -27 -17 -35
-157 -75 -196 -58 -288 -121 -387 -267 -36 -53 -64 -99 -61 -101 2 -2 37 26
77 63 127 118 227 173 388 215 116 31 207 74 323 153 180 123 381 205 557 228
96 12 146 5 197 -28 52 -34 68 -114 37 -179 -38 -79 -179 -156 -442 -241 -184
-59 -247 -87 -235 -106 3 -5 1 -7 -5 -4 -14 10 -71 -62 -191 -240 -106 -159
-144 -199 -260 -277 -123 -82 -160 -88 -436 -73 l-140 7 94 -34 c51 -19 95
-37 97 -39 3 -2 -50 -36 -115 -76 -128 -76 -238 -159 -311 -235 l-45 -47 39
-33 39 -32 46 46 c131 130 465 334 593 361 65 14 87 25 208 104 119 78 147
108 258 272 l89 132 11 -60 c12 -67 46 -120 92 -144 42 -22 52 -20 124 30 37
25 71 45 76 45 5 0 16 -10 25 -23 20 -32 86 -67 124 -67 23 0 44 11 76 41 l44
40 21 -40 c24 -47 63 -71 117 -71 49 0 1569 463 1603 488 38 29 51 61 47 117
-4 55 -310 1066 -333 1103 -22 34 -74 62 -114 61 -19 -1 -372 -104 -784 -230z
m893 -150 c43 -140 115 -377 161 -527 71 -234 81 -275 69 -286 -8 -8 -203 -71
-434 -141 -231 -70 -573 -174 -760 -231 -187 -57 -345 -104 -352 -104 -6 0
-14 4 -18 9 -7 12 -125 397 -125 409 0 5 30 27 66 48 145 85 197 154 198 264
0 78 -24 132 -81 179 -62 51 -119 65 -243 57 l-107 -7 -18 61 c-11 38 -15 64
-9 70 5 5 203 68 439 140 418 127 928 283 1050 320 49 15 62 16 74 5 7 -7 48
-127 90 -266z m-1490 -1144 c1 -24 -68 -124 -85 -125 -25 0 -64 43 -75 83 -8
31 -8 60 0 110 12 71 51 162 73 170 9 3 25 -31 50 -107 20 -61 37 -120 37
-131z m-234 158 c-4 -16 -12 -65 -19 -110 l-11 -82 -58 -41 c-33 -24 -64 -39
-73 -36 -23 9 -46 74 -39 110 4 17 18 57 32 89 25 56 27 58 87 77 84 26 90 26
81 -7z"/>
<path d="M2065 1586 c-38 -11 -40 -14 -37 -46 5 -50 40 -136 69 -170 19 -23
33 -30 61 -30 21 0 44 5 52 11 11 7 5 8 -22 3 -33 -5 -41 -2 -70 27 -18 19
-33 39 -34 44 0 6 -6 36 -13 68 -7 32 -11 60 -9 62 1 1 19 12 38 24 39 23 26
26 -35 7z"/>
</g>
</svg>
