<svg xmlns="http://www.w3.org/2000/svg" version="1.1" xmlns:xlink="http://www.w3.org/1999/xlink" xmlns:svgjs="http://svgjs.dev/svgjs" width="1000" height="1000" viewBox="0 0 1000 1000"><rect width="1000" height="1000" fill="#000000"></rect><g transform="matrix(0.7,0,0,0.7,149.57576649202758,438.69209620053084)"><svg viewBox="0 0 396 69" data-background-color="#ffffff" preserveAspectRatio="xMidYMid meet" height="174" width="1000" xmlns="http://www.w3.org/2000/svg" xmlns:xlink="http://www.w3.org/1999/xlink"><defs></defs><g id="tight-bounds" transform="matrix(1,0,0,1,0.23999495593869824,0.23107850708842648)"><svg viewBox="0 0 395.52 68.53784133891394" height="68.53784133891394" width="395.52"><g><svg viewBox="0 0 584.421400758476 101.27169609691106" height="68.53784133891394" width="395.52"><g><rect width="3.652905433615932" height="87.93490254435112" x="175.68591565570844" y="6.66839677627997" fill="#ffffff" opacity="1" stroke-width="0" stroke="transparent" fill-opacity="1" class="rect-o-0" data-fill-palette-color="primary" rx="1%" id="o-0" data-palette-color="#528265"></rect></g><g transform="matrix(1,0,0,1,188.90140075847603,13.99630532164256)"><svg viewBox="0 0 395.52 73.27908545362594" height="73.27908545362594" width="395.52"><g><svg viewBox="0 0 395.52 73.27908545362594" height="73.27908545362594" width="395.52"><g><svg viewBox="0 0 395.52 40.50636095643629" height="40.50636095643629" width="395.52"><g transform="matrix(1,0,0,1,0,0)"><svg width="395.52" viewBox="0.10000000149011612 -36.900001525878906 453.41998291015625 46.900001525878906" height="40.50636095643629" data-palette-color="#528265"><g class="undefined-text-0" data-fill-palette-color="primary" id="text-0"><path d="M0.1 0L0.1-6.3 3.4-6.3 8.15-28.7 4.85-28.7 4.85-35 19.8-35Q22.3-35 24.15-34.38 26-33.75 27.2-32.65 28.4-31.55 28.98-30.05 29.55-28.55 29.55-26.85L29.55-26.85Q29.55-24.95 28.93-23.48 28.3-22 27.2-20.9 26.1-19.8 24.68-19.05 23.25-18.3 21.6-17.9L21.6-17.9 21.6-17Q23.6-16.4 24.85-14.85 26.1-13.3 26.1-10.5L26.1-10.5Q26.1-8.3 25.18-6.4 24.25-4.5 22.6-3.08 20.95-1.65 18.68-0.83 16.4 0 13.7 0L13.7 0 0.1 0ZM11.6-14.4L9.9-6.3 14.2-6.3Q16.65-6.3 18.28-7.5 19.9-8.7 19.9-10.95L19.9-10.95Q19.9-12.8 18.82-13.6 17.75-14.4 15.9-14.4L15.9-14.4 11.6-14.4ZM14.65-28.7L12.95-20.7 17.25-20.7Q19.85-20.7 21.38-21.88 22.9-23.05 22.9-25.35L22.9-25.35Q22.9-27 21.85-27.85 20.8-28.7 18.95-28.7L18.95-28.7 14.65-28.7ZM35.45-24.8L41.75-24.8 38.65-10.4Q38.45-9.55 38.45-8.75L38.45-8.75Q38.45-6.85 39.5-5.93 40.55-5 42.3-5L42.3-5Q44.95-5 46.37-6.73 47.8-8.45 48.5-11.6L48.5-11.6 51.3-24.8 57.6-24.8 53.5-5.9 54.05-5.6 55.85-6.9 59-2.3 56.65-0.6Q55.7 0.1 54.67 0.4 53.65 0.7 52.65 0.7L52.65 0.7Q50.6 0.7 49.05-0.48 47.5-1.65 47.3-3.9L47.3-3.9 46.4-3.9Q45.3-1.35 43.42-0.33 41.55 0.7 39.2 0.7L39.2 0.7Q35.95 0.7 33.9-1.28 31.85-3.25 31.85-6.8L31.85-6.8Q31.85-8.05 32.15-9.5L32.15-9.5 35.45-24.8ZM77.3-19.8L77.3-19.8Q76.75-19.8 76.17-19.68 75.6-19.55 75.1-19.3 74.6-19.05 74.27-18.63 73.95-18.2 73.95-17.6L73.95-17.6Q73.95-16.55 75.15-16.05 76.35-15.55 79.25-15.2L79.25-15.2Q82.5-14.8 84.5-13.23 86.5-11.65 86.5-8.7L86.5-8.7Q86.5-4.3 83.42-1.8 80.35 0.7 74.9 0.7L74.9 0.7Q72.15 0.7 70.17-0.1 68.2-0.9 66.92-2.1 65.65-3.3 65-4.75 64.35-6.2 64.3-7.5L64.3-7.5 70.5-9Q70.65-7.35 71.9-6.18 73.15-5 75.7-5L75.7-5Q77.45-5 78.75-5.55 80.05-6.1 80.05-7.5L80.05-7.5Q80.05-8.55 79.05-9.18 78.05-9.8 75.35-10.05L75.35-10.05Q71.75-10.35 69.62-12.1 67.5-13.85 67.5-16.75L67.5-16.75Q67.5-18.85 68.37-20.5 69.25-22.15 70.7-23.25 72.15-24.35 74.07-24.93 76-25.5 78.1-25.5L78.1-25.5Q80.7-25.5 82.45-24.8 84.2-24.1 85.3-23.05 86.4-22 86.92-20.78 87.45-19.55 87.6-18.5L87.6-18.5 81.5-16.9Q81.3-18.25 80.25-19.03 79.2-19.8 77.3-19.8ZM118.04-5.5L110.79-0.6Q109.79 0.1 108.74 0.4 107.69 0.7 106.69 0.7L106.69 0.7Q105.59 0.7 104.59 0.33 103.59-0.05 102.84-0.73 102.09-1.4 101.67-2.38 101.24-3.35 101.24-4.55L101.24-4.55Q101.24-5.5 101.44-6.3L101.44-6.3 104.44-18.85 103.94-19.2 97.24-14.6 94.09-19.3 101.34-24.2Q102.34-24.9 103.39-25.2 104.44-25.5 105.44-25.5L105.44-25.5Q106.54-25.5 107.54-25.13 108.54-24.75 109.29-24.08 110.04-23.4 110.47-22.43 110.89-21.45 110.89-20.25L110.89-20.25Q110.89-19.3 110.69-18.5L110.69-18.5 107.69-5.95 108.19-5.6 114.89-10.2 118.04-5.5ZM115.14-32.15L115.14-32.15Q115.14-31.15 114.77-30.28 114.39-29.4 113.74-28.78 113.09-28.15 112.22-27.78 111.34-27.4 110.39-27.4L110.39-27.4Q109.39-27.4 108.54-27.78 107.69-28.15 107.04-28.78 106.39-29.4 106.02-30.28 105.64-31.15 105.64-32.15L105.64-32.15Q105.64-33.15 106.02-34.02 106.39-34.9 107.04-35.52 107.69-36.15 108.54-36.52 109.39-36.9 110.39-36.9L110.39-36.9Q111.34-36.9 112.22-36.52 113.09-36.15 113.74-35.52 114.39-34.9 114.77-34.02 115.14-33.15 115.14-32.15ZM139.54-6.1L141.34-14.4Q141.54-15.35 141.54-16L141.54-16Q141.54-17.8 140.49-18.8 139.44-19.8 137.64-19.8L137.64-19.8Q135.39-19.8 133.79-18.2 132.19-16.6 131.64-13.9L131.64-13.9 128.69 0 122.39 0 127.64-24.8 133.69-24.8 132.84-20.8 133.74-20.8Q134.94-23.3 136.92-24.4 138.89-25.5 141.29-25.5L141.29-25.5Q144.44-25.5 146.32-23.6 148.19-21.7 148.19-18.25L148.19-18.25Q148.19-17.45 148.09-16.78 147.99-16.1 147.84-15.3L147.84-15.3 145.84-5.95 146.34-5.6 148.49-7.1 151.64-2.4 148.94-0.6Q147.04 0.7 144.89 0.7L144.89 0.7Q143.79 0.7 142.79 0.33 141.79-0.05 141.04-0.73 140.29-1.4 139.84-2.38 139.39-3.35 139.39-4.6L139.39-4.6Q139.39-5.25 139.54-6.1L139.54-6.1ZM179.44-10.35L161.24-10.35Q161.14-9.95 161.14-9.5L161.14-9.5Q161.14-7.7 162.51-6.5 163.89-5.3 166.14-5.3L166.14-5.3Q168.49-5.3 169.89-6.15 171.29-7 172.04-8.15L172.04-8.15 177.04-5Q176.44-4 175.46-3 174.49-2 173.06-1.18 171.64-0.35 169.71 0.18 167.79 0.7 165.24 0.7L165.24 0.7Q162.94 0.7 161.01-0.03 159.09-0.75 157.71-2.02 156.34-3.3 155.56-5.08 154.79-6.85 154.79-9L154.79-9Q154.79-12.4 155.81-15.4 156.84-18.4 158.79-20.65 160.74-22.9 163.59-24.2 166.44-25.5 170.14-25.5L170.14-25.5Q172.74-25.5 174.66-24.68 176.59-23.85 177.84-22.48 179.09-21.1 179.71-19.35 180.34-17.6 180.34-15.75L180.34-15.75Q180.34-15.15 180.26-14.53 180.19-13.9 179.99-12.9L179.99-12.9 179.44-10.35ZM169.14-19.8L169.14-19.8Q166.79-19.8 165.06-18.63 163.34-17.45 162.49-15.75L162.49-15.75 174.19-15.75Q174.19-17.65 173.01-18.73 171.84-19.8 169.14-19.8ZM199.69-19.8L199.69-19.8Q199.14-19.8 198.56-19.68 197.99-19.55 197.49-19.3 196.99-19.05 196.66-18.63 196.34-18.2 196.34-17.6L196.34-17.6Q196.34-16.55 197.53-16.05 198.74-15.55 201.64-15.2L201.64-15.2Q204.89-14.8 206.89-13.23 208.89-11.65 208.89-8.7L208.89-8.7Q208.89-4.3 205.81-1.8 202.74 0.7 197.28 0.7L197.28 0.7Q194.53 0.7 192.56-0.1 190.59-0.9 189.31-2.1 188.03-3.3 187.39-4.75 186.74-6.2 186.69-7.5L186.69-7.5 192.89-9Q193.03-7.35 194.28-6.18 195.53-5 198.09-5L198.09-5Q199.84-5 201.14-5.55 202.44-6.1 202.44-7.5L202.44-7.5Q202.44-8.55 201.44-9.18 200.44-9.8 197.74-10.05L197.74-10.05Q194.14-10.35 192.01-12.1 189.89-13.85 189.89-16.75L189.89-16.75Q189.89-18.85 190.76-20.5 191.64-22.15 193.09-23.25 194.53-24.35 196.46-24.93 198.39-25.5 200.49-25.5L200.49-25.5Q203.09-25.5 204.84-24.8 206.59-24.1 207.69-23.05 208.79-22 209.31-20.78 209.84-19.55 209.99-18.5L209.99-18.5 203.89-16.9Q203.69-18.25 202.64-19.03 201.59-19.8 199.69-19.8ZM230.28-19.8L230.28-19.8Q229.73-19.8 229.16-19.68 228.58-19.55 228.08-19.3 227.58-19.05 227.26-18.63 226.93-18.2 226.93-17.6L226.93-17.6Q226.93-16.55 228.13-16.05 229.33-15.55 232.23-15.2L232.23-15.2Q235.48-14.8 237.48-13.23 239.48-11.65 239.48-8.7L239.48-8.7Q239.48-4.3 236.41-1.8 233.33 0.7 227.88 0.7L227.88 0.7Q225.13 0.7 223.16-0.1 221.18-0.9 219.91-2.1 218.63-3.3 217.98-4.75 217.33-6.2 217.28-7.5L217.28-7.5 223.48-9Q223.63-7.35 224.88-6.18 226.13-5 228.68-5L228.68-5Q230.43-5 231.73-5.55 233.03-6.1 233.03-7.5L233.03-7.5Q233.03-8.55 232.03-9.18 231.03-9.8 228.33-10.05L228.33-10.05Q224.73-10.35 222.61-12.1 220.48-13.85 220.48-16.75L220.48-16.75Q220.48-18.85 221.36-20.5 222.23-22.15 223.68-23.25 225.13-24.35 227.06-24.93 228.98-25.5 231.08-25.5L231.08-25.5Q233.68-25.5 235.43-24.8 237.18-24.1 238.28-23.05 239.38-22 239.91-20.78 240.43-19.55 240.58-18.5L240.58-18.5 234.48-16.9Q234.28-18.25 233.23-19.03 232.18-19.8 230.28-19.8Z" fill="#ffffff" data-fill-palette-color="primary"></path><path d="M253.33-5.3L253.33-5.3Q255.18-5.3 256.51-5.9 257.83-6.5 258.73-7.48 259.63-8.45 260.16-9.73 260.68-11 260.98-12.3L260.98-12.3 261.18-13.2 267.78-13.2 267.58-12.3Q266.88-9.05 265.68-6.63 264.48-4.2 262.63-2.58 260.78-0.95 258.23-0.13 255.68 0.7 252.23 0.7L252.23 0.7Q249.88 0.7 247.93 0 245.98-0.7 244.58-2.05 243.18-3.4 242.41-5.33 241.63-7.25 241.63-9.75L241.63-9.75Q241.63-10.65 241.73-11.55 241.83-12.45 242.08-13.6L242.08-13.6 243.73-21.4Q245.28-28.65 249.23-32.18 253.18-35.7 259.53-35.7L259.53-35.7Q262.03-35.7 264.01-34.9 265.98-34.1 267.36-32.73 268.73-31.35 269.46-29.5 270.18-27.65 270.18-25.55L270.18-25.55Q270.18-24.85 270.08-24.15 269.98-23.45 269.83-22.7L269.83-22.7 269.63-21.8 263.03-21.8 263.23-22.7Q263.53-23.9 263.53-25L263.53-25Q263.53-26.95 262.41-28.33 261.28-29.7 258.48-29.7L258.48-29.7Q256.83-29.7 255.48-29.08 254.13-28.45 253.13-27.38 252.13-26.3 251.46-24.88 250.78-23.45 250.43-21.9L250.43-21.9 248.58-13.1Q248.43-12.35 248.33-11.63 248.23-10.9 248.23-10.25L248.23-10.25Q248.23-8 249.41-6.65 250.58-5.3 253.33-5.3ZM299.13-24.8L295.13-5.95 295.63-5.6 298.03-7.3 301.18-2.6 298.23-0.6Q296.28 0.7 294.13 0.7L294.13 0.7Q292.23 0.7 290.73-0.35 289.23-1.4 288.83-3.3L288.83-3.3 287.93-3.3Q287.48-2.45 286.88-1.73 286.28-1 285.4-0.48 284.53 0.05 283.35 0.38 282.18 0.7 280.58 0.7L280.58 0.7Q278.63 0.7 276.98-0.08 275.33-0.85 274.1-2.23 272.88-3.6 272.18-5.45 271.48-7.3 271.48-9.5L271.48-9.5Q271.48-12.85 272.38-15.75 273.28-18.65 274.98-20.83 276.68-23 279.15-24.25 281.63-25.5 284.73-25.5L284.73-25.5Q287.48-25.5 289.08-24.4 290.68-23.3 291.23-21.5L291.23-21.5 292.13-21.5 292.83-24.8 299.13-24.8ZM283.03-5.3L283.03-5.3Q284.83-5.3 286.23-6.03 287.63-6.75 288.55-7.95 289.48-9.15 289.98-10.78 290.48-12.4 290.48-14.2L290.48-14.2Q290.48-16.55 289.13-18.03 287.78-19.5 285.53-19.5L285.53-19.5Q283.73-19.5 282.33-18.78 280.93-18.05 279.98-16.85 279.03-15.65 278.53-14.03 278.03-12.4 278.03-10.6L278.03-10.6Q278.03-8.5 279.25-6.9 280.48-5.3 283.03-5.3ZM307.98-6L310.68-18.9 310.18-19.2 306.23-16.3 302.88-20.8 306.88-23.8Q308.03-24.65 309.3-25.08 310.58-25.5 311.73-25.5L311.73-25.5Q313.73-25.5 315.23-24.4 316.73-23.3 317.03-21.3L317.03-21.3 317.93-21.3Q318.93-23.4 320.73-24.45 322.53-25.5 324.78-25.5L324.78-25.5Q327.63-25.5 329.4-23.73 331.18-21.95 331.18-18.8L331.18-18.8Q331.18-18.15 331.1-17.53 331.03-16.9 330.83-16L330.83-16 330.58-14.9 323.88-14.4 324.03-15.1Q324.18-15.85 324.18-16.45L324.18-16.45Q324.18-17.9 323.38-18.75 322.58-19.6 320.98-19.6L320.98-19.6Q318.98-19.6 317.8-18.25 316.63-16.9 316.08-14.4L316.08-14.4 314.28-6 320.28-6 320.28 0 303.18 0 303.18-6 307.98-6ZM359.57-21.2L356.32-5.95 356.82-5.6 359.52-7.5 362.67-2.8 359.42-0.6Q358.37 0.1 357.35 0.4 356.32 0.7 355.32 0.7L355.32 0.7Q353.42 0.7 351.92-0.35 350.42-1.4 350.02-3.3L350.02-3.3 349.12-3.3Q348.67-2.45 348.07-1.73 347.47-1 346.6-0.48 345.72 0.05 344.55 0.38 343.37 0.7 341.77 0.7L341.77 0.7Q339.82 0.7 338.17-0.08 336.52-0.85 335.3-2.23 334.07-3.6 333.37-5.45 332.67-7.3 332.67-9.5L332.67-9.5Q332.67-12.85 333.57-15.75 334.47-18.65 336.17-20.83 337.87-23 340.35-24.25 342.82-25.5 345.92-25.5L345.92-25.5Q348.57-25.5 350.22-24.3 351.87-23.1 352.37-21.2L352.37-21.2 353.27-21.2 356.32-35.7 362.67-35.7 359.57-21.2ZM344.22-5.3L344.22-5.3Q346.02-5.3 347.42-6.03 348.82-6.75 349.75-7.95 350.67-9.15 351.17-10.78 351.67-12.4 351.67-14.2L351.67-14.2Q351.67-16.55 350.32-18.03 348.97-19.5 346.72-19.5L346.72-19.5Q344.92-19.5 343.52-18.78 342.12-18.05 341.17-16.85 340.22-15.65 339.72-14.03 339.22-12.4 339.22-10.6L339.22-10.6Q339.22-8.5 340.45-6.9 341.67-5.3 344.22-5.3Z" fill="#ffffff" data-fill-palette-color="secondary"></path><path d="M382.17 0L382.07-7.5 370.52-7.5 367.32 0 360.27 0 375.67-35 387.87-35 388.72 0 382.17 0ZM380.82-31.7L373.17-13.8 381.97-13.8 381.72-31.7 380.82-31.7ZM402.22-3.6L399.32 10 393.02 10 399.17-18.85 398.67-19.2 396.37-17.5 393.12-22 395.82-24Q396.87-24.75 397.99-25.13 399.12-25.5 400.17-25.5L400.17-25.5Q402.17-25.5 403.67-24.35 405.17-23.2 405.52-21.2L405.52-21.2 406.42-21.2Q408.87-25.5 414.42-25.5L414.42-25.5Q416.12-25.5 417.67-24.85 419.22-24.2 420.39-22.95 421.57-21.7 422.24-19.88 422.92-18.05 422.92-15.7L422.92-15.7Q422.92-12.75 422.19-9.8 421.47-6.85 419.92-4.53 418.37-2.2 415.94-0.75 413.52 0.7 410.12 0.7L410.12 0.7Q408.52 0.7 407.32 0.33 406.12-0.05 405.27-0.65 404.42-1.25 403.87-2.02 403.32-2.8 403.12-3.6L403.12-3.6 402.22-3.6ZM408.92-5.3L408.92-5.3Q410.77-5.3 412.17-5.98 413.57-6.65 414.49-7.85 415.42-9.05 415.87-10.7 416.32-12.35 416.32-14.3L416.32-14.3Q416.32-16.4 414.97-17.95 413.62-19.5 411.22-19.5L411.22-19.5Q409.52-19.5 408.17-18.82 406.82-18.15 405.87-16.95 404.92-15.75 404.39-14.1 403.87-12.45 403.87-10.5L403.87-10.5Q403.87-8.15 405.22-6.73 406.57-5.3 408.92-5.3ZM432.82-3.6L429.92 10 423.62 10 429.77-18.85 429.27-19.2 426.97-17.5 423.72-22 426.42-24Q427.47-24.75 428.59-25.13 429.72-25.5 430.77-25.5L430.77-25.5Q432.77-25.5 434.27-24.35 435.77-23.2 436.12-21.2L436.12-21.2 437.02-21.2Q439.47-25.5 445.02-25.5L445.02-25.5Q446.72-25.5 448.27-24.85 449.82-24.2 450.99-22.95 452.17-21.7 452.84-19.88 453.52-18.05 453.52-15.7L453.52-15.7Q453.52-12.75 452.79-9.8 452.07-6.85 450.52-4.53 448.97-2.2 446.54-0.75 444.12 0.7 440.72 0.7L440.72 0.7Q439.12 0.7 437.92 0.33 436.72-0.05 435.87-0.65 435.02-1.25 434.47-2.02 433.92-2.8 433.72-3.6L433.72-3.6 432.82-3.6ZM439.52-5.3L439.52-5.3Q441.37-5.3 442.77-5.98 444.17-6.65 445.09-7.85 446.02-9.05 446.47-10.7 446.92-12.35 446.92-14.3L446.92-14.3Q446.92-16.4 445.57-17.95 444.22-19.5 441.82-19.5L441.82-19.5Q440.12-19.5 438.77-18.82 437.42-18.15 436.47-16.95 435.52-15.75 434.99-14.1 434.47-12.45 434.47-10.5L434.47-10.5Q434.47-8.15 435.82-6.73 437.17-5.3 439.52-5.3Z" fill="#ffffff" data-fill-palette-color="primary"></path></g></svg></g></svg></g><g transform="matrix(1,0,0,1,0,50.06894062558794)"><svg viewBox="0 0 143.17236797270527 23.210144828037993" height="23.210144828037993" width="143.17236797270527"><g transform="matrix(1,0,0,1,0,0)"><svg width="143.17236797270527" viewBox="-0.550000011920929 -36 248.8800048828125 40.349998474121094" height="23.210144828037993" data-palette-color="#001f3f"><path d="M9.5 4.35L9.5 4.35Q6.4 4.35 4.15 3.1 1.9 1.85 0.68-0.25-0.55-2.35-0.55-4.85L-0.55-4.85Q-0.55-7.1 0.43-9.3 1.4-11.5 3.15-13.3 4.9-15.1 7.25-16.3 9.6-17.5 12.3-17.8L12.3-17.8Q10.4-19.4 9.5-21.45 8.6-23.5 8.6-25.55L8.6-25.55Q8.6-28.2 9.93-30.6 11.25-33 13.63-34.48 16-35.95 19.05-35.95L19.05-35.95Q21.95-35.95 23.48-34.52 25-33.1 25-30.45L25-30.45Q25-28.55 24.33-26.8 23.65-25.05 22.7-23.95 21.75-22.85 20.9-22.85L20.9-22.85Q20.3-22.85 19.75-23.38 19.2-23.9 18.85-24.6L18.85-24.6Q20.65-26.1 21.88-27.83 23.1-29.55 23.1-31.45L23.1-31.45Q23.1-33 22.18-33.83 21.25-34.65 19.55-34.65L19.55-34.65Q17.25-34.65 15.68-33.27 14.1-31.9 13.3-29.68 12.5-27.45 12.5-24.85L12.5-24.85Q12.5-22.95 13.13-20.83 13.75-18.7 15.65-17.1L15.65-17.1Q12.25-16.55 9.7-14.58 7.15-12.6 5.75-9.95 4.35-7.3 4.35-4.7L4.35-4.7Q4.35-3.1 4.98-1.45 5.6 0.2 7.03 1.33 8.45 2.45 10.8 2.45L10.8 2.45Q13.5 2.45 16.13 0.95 18.75-0.55 20.95-3.03 23.15-5.5 24.5-8.3L24.5-8.3 25.4-7.7Q23.6-4.3 21.2-1.58 18.8 1.15 15.85 2.75 12.9 4.35 9.5 4.35ZM26.5 1.5L26.5 1.5Q25.65 1.5 24.72 1.05 23.8 0.6 23.2-0.35 22.6-1.3 22.6-2.8L22.6-2.8Q22.6-4.45 23.4-6.5 24.2-8.55 25.55-10.58 26.9-12.6 28.67-14.33 30.45-16.05 32.4-17.07 34.35-18.1 36.3-18.1L36.3-18.1Q37.4-18.1 38-17.73 38.6-17.35 38.6-16.55L38.6-16.55Q38.6-16.35 38.55-16.13 38.5-15.9 38.3-15.7L38.3-15.7Q38.1-16.05 37.6-16.23 37.1-16.4 36.45-16.4L36.45-16.4Q34.85-16.4 33.32-15.43 31.8-14.45 30.55-12.93 29.3-11.4 28.35-9.63 27.4-7.85 26.87-6.23 26.35-4.6 26.35-3.45L26.35-3.45Q26.35-2.4 26.82-1.78 27.3-1.15 28.1-1.15L28.1-1.15Q29.45-1.15 31.35-2.8 33.25-4.45 35.25-7.5 37.25-10.55 38.85-14.7L38.85-14.7Q39.95-17.6 41.12-20.6 42.3-23.6 43.5-26.35 44.7-29.1 45.85-31.28 47-33.45 48.05-34.73 49.1-36 49.9-36L49.9-36Q50.35-36 50.7-35.65 51.05-35.3 51.05-34.75L51.05-34.75Q51.05-33.9 50.22-32 49.4-30.1 48.1-27.45 46.8-24.8 45.32-21.7 43.85-18.6 42.55-15.38 41.25-12.15 40.42-9.1 39.6-6.05 39.6-3.5L39.6-3.5Q39.6-2.15 39.77-1.55 39.95-0.95 40.7-0.95L40.7-0.95Q41.75-0.95 43.15-1.83 44.55-2.7 45.95-4.35 47.35-6 48.4-8.35L48.4-8.35 49.15-7.75Q48.15-5.15 46.47-3.1 44.8-1.05 42.9 0.13 41 1.3 39.25 1.3L39.25 1.3Q37.3 1.3 36.55 0.05 35.8-1.2 35.8-2.65L35.8-2.65Q35.8-3.5 36.02-4.7 36.25-5.9 36.6-7.3L36.6-7.3Q35-4.8 33.22-2.78 31.45-0.75 29.75 0.38 28.05 1.5 26.5 1.5ZM52.89 2.2L52.89 2.2Q49.8 2.2 48.2 0.5 46.59-1.2 46.59-3.7L46.59-3.7Q46.59-5.9 47.72-8.4 48.84-10.9 50.72-13.1 52.59-15.3 54.87-16.65 57.14-18 59.39-18L59.39-18Q60.59-18 61.62-17.38 62.64-16.75 62.64-14.85L62.64-14.85Q62.64-12.95 61.55-11.3 60.45-9.65 58.59-8.35 56.74-7.05 54.57-6.23 52.39-5.4 50.2-5.15L50.2-5.15Q50.09-4.75 50.07-4.38 50.05-4 50.05-3.6L50.05-3.6Q50.05-3 50.17-2.3 50.3-1.6 50.72-0.95 51.14-0.3 51.92 0.1 52.7 0.5 53.95 0.5L53.95 0.5Q56.09 0.5 58.2-0.7 60.3-1.9 62.12-3.88 63.95-5.85 65.19-8.25L65.19-8.25 65.94-7.7Q64.59-4.7 62.49-2.48 60.39-0.25 57.92 0.98 55.45 2.2 52.89 2.2ZM50.55-6.4L50.55-6.4Q51.89-6.75 53.55-7.6 55.2-8.45 56.74-9.63 58.3-10.8 59.3-12.23 60.3-13.65 60.3-15.2L60.3-15.2Q60.3-15.75 60.09-16 59.89-16.25 59.3-16.25L59.3-16.25Q58.14-16.25 56.82-15.38 55.49-14.5 54.27-13.05 53.05-11.6 52.05-9.88 51.05-8.15 50.55-6.4ZM80.54 1L80.54 1Q78.69 1 77.77 0.08 76.84-0.85 76.84-2.3L76.84-2.3Q76.84-3.3 77.22-4.45 77.59-5.6 77.94-6.8 78.29-8 78.29-9.1L78.29-9.1Q78.29-10.4 77.74-10.9 77.19-11.4 76.39-11.4L76.39-11.4Q74.84-11.4 73.24-10.15 71.64-8.9 70.17-6.95 68.69-5 67.39-2.95 66.09-0.9 65.09 0.75L65.09 0.75Q64.24 0.75 63.47 0.45 62.69 0.15 62.24-0.45L62.24-0.45Q62.24-0.7 62.77-2 63.29-3.3 63.99-5.15 64.69-7 65.22-9 65.74-11 65.74-12.6L65.74-12.6Q66.04-13 66.72-13.35 67.39-13.7 68.14-13.7L68.14-13.7Q69.64-13.7 69.64-12.35L69.64-12.35Q69.64-11.6 69.27-9.98 68.89-8.35 68.29-6.45L68.29-6.45Q69.59-8.4 71.24-10.28 72.89-12.15 74.72-13.38 76.54-14.6 78.34-14.6L78.34-14.6Q80.39-14.6 81.32-13.18 82.24-11.75 82.24-10.05L82.24-10.05Q82.24-8.5 81.74-7.2 81.24-5.9 80.72-4.7 80.19-3.5 80.19-2.3L80.19-2.3Q80.19-1.3 80.62-0.93 81.04-0.55 81.59-0.55L81.59-0.55Q82.84-0.55 84.12-1.7 85.39-2.85 86.57-4.65 87.74-6.45 88.64-8.3L88.64-8.3 89.29-7.6Q88.24-5.15 86.92-3.23 85.59-1.3 84.02-0.15 82.44 1 80.54 1ZM99.89 4.35L99.89 4.35Q100.19 3.65 101.49 0.78 102.79-2.1 104.94-6.78 107.09-11.45 109.84-17.55 112.59-23.65 115.79-30.75L115.79-30.75Q115.99-31.15 116.14-31.68 116.29-32.2 116.29-32.7L116.29-32.7Q116.29-33.2 115.96-33.55 115.64-33.9 114.69-33.9L114.69-33.9Q112.59-33.9 111.21-32.52 109.84-31.15 109.19-29.15 108.54-27.15 108.54-25.15L108.54-25.15Q108.54-24.7 108.56-24.25 108.59-23.8 108.69-23.35L108.69-23.35Q107.64-23.35 106.99-24.03 106.34-24.7 106.04-25.73 105.74-26.75 105.74-27.6L105.74-27.6Q105.74-29.2 106.64-30.7 107.54-32.2 108.99-33.43 110.44-34.65 112.19-35.33 113.94-36 115.64-36L115.64-36Q117.39-36 118.56-35.05 119.74-34.1 120.36-31.6 120.99-29.1 120.99-24.4L120.99-24.4Q120.99-21.25 120.76-17.8 120.54-14.35 120.29-11.13 120.04-7.9 119.94-5.35L119.94-5.35Q120.84-8.35 122.31-11.78 123.79-15.2 125.54-18.57 127.29-21.95 128.99-24.9 130.69-27.85 132.06-30.05 133.44-32.25 134.14-33.25L134.14-33.25Q134.84-34.3 135.34-34.83 135.84-35.35 136.69-35.35L136.69-35.35Q137.39-35.35 138.49-34.95L138.49-34.95Q138.14-34.05 137.51-32.18 136.89-30.3 136.24-27.65L136.24-27.65Q135.44-24.65 134.66-20.88 133.89-17.1 133.24-13.2 132.59-9.3 132.19-5.88 131.79-2.45 131.79 0L131.79 0Q131.79 1.15 131.89 1.8 131.99 2.45 132.19 2.98 132.39 3.5 132.64 4.35L132.64 4.35Q130.79 4.35 129.81 3.78 128.84 3.2 128.51 1.9 128.19 0.6 128.19-1.55L128.19-1.55Q128.19-7.35 129.61-13.95 131.04-20.55 132.94-27.6L132.94-27.6Q131.49-25.7 129.94-22.9 128.39-20.1 126.86-16.9 125.34-13.7 123.94-10.53 122.54-7.35 121.49-4.65 120.44-1.95 119.84-0.15L119.84-0.15Q119.49-0.05 119.36 0 119.24 0.05 118.99 0.05L118.99 0.05Q117.49 0.05 117.06-1.73 116.64-3.5 116.64-6.65L116.64-6.65Q116.64-8.65 116.74-11.28 116.84-13.9 116.96-16.68 117.09-19.45 117.19-22.08 117.29-24.7 117.29-26.75L117.29-26.75Q117.29-27.65 117.26-28.33 117.24-29 117.19-29.6L117.19-29.6Q113.29-20.45 110.61-13.98 107.94-7.5 106.09-3.45 104.24 0.6 102.79 2.48 101.34 4.35 99.89 4.35ZM140.79 2.35L140.79 2.35Q139.19 2.35 138.06 1.3 136.94 0.25 136.94-1.9L136.94-1.9Q136.94-3.65 137.74-5.73 138.54-7.8 139.94-9.83 141.34-11.85 143.11-13.5 144.89-15.15 146.89-16.15 148.89-17.15 150.89-17.15L150.89-17.15Q152.89-17.15 154.26-16.1 155.64-15.05 155.64-13.3L155.64-13.3Q155.64-12.05 154.86-11.55 154.09-11.05 152.94-11.1L152.94-11.1Q153.04-11.55 153.11-12 153.19-12.45 153.19-12.9L153.19-12.9Q153.19-14 152.69-14.83 152.19-15.65 150.84-15.65L150.84-15.65Q149.44-15.65 147.99-14.68 146.54-13.7 145.21-12.1 143.89-10.5 142.84-8.63 141.79-6.75 141.19-4.95 140.59-3.15 140.59-1.7L140.59-1.7Q140.59 0.15 141.84 0.15L141.84 0.15Q142.99 0.15 144.36-0.95 145.74-2.05 147.16-3.73 148.59-5.4 149.89-7.2 151.19-9 152.19-10.4L152.19-10.4Q152.34-10.7 152.49-10.7L152.49-10.7Q152.74-10.65 153.24-10.5 153.74-10.35 154.14-10.05 154.54-9.75 154.54-9.3L154.54-9.3Q154.54-8.85 154.11-8.08 153.69-7.3 153.11-6.33 152.54-5.35 152.11-4.35 151.69-3.35 151.69-2.5L151.69-2.5Q151.69-1.75 152.06-1.07 152.44-0.4 153.29-0.4L153.29-0.4Q154.59-0.4 156.79-2.33 158.99-4.25 161.24-8.3L161.24-8.3 161.89-7.65Q160.79-4.95 159.14-2.88 157.49-0.8 155.61 0.35 153.74 1.5 151.89 1.5L151.89 1.5Q149.99 1.5 149.06 0.33 148.14-0.85 148.14-2.2L148.14-2.2Q148.14-2.45 148.16-2.7 148.19-2.95 148.24-3.25L148.24-3.25Q146.14-0.5 144.39 0.93 142.64 2.35 140.79 2.35ZM163.93 1.35L163.93 1.35Q161.88 1.35 160.88 0.1 159.88-1.15 159.88-2.9L159.88-2.9Q159.88-4.05 160.31-5.8 160.73-7.55 161.43-9.47 162.13-11.4 163.06-13.1 163.98-14.8 165.06-15.88 166.13-16.95 167.18-16.95L167.18-16.95Q167.68-16.95 168.03-16.65 168.38-16.35 168.38-15.75L168.38-15.75Q168.38-15.15 167.61-13.8 166.83-12.45 165.81-10.73 164.78-9 164.01-7.1 163.23-5.2 163.23-3.5L163.23-3.5Q163.23-1.75 163.81-1.18 164.38-0.6 165.58-0.6L165.58-0.6Q167.28-0.6 169.23-2.3 171.18-4 173.33-8.25L173.33-8.25 173.88-7.65Q172.33-3.35 169.63-1 166.93 1.35 163.93 1.35ZM169.88-21.4L169.88-21.4Q169.03-21.4 168.36-21.83 167.68-22.25 167.68-23.15L167.68-23.15Q167.68-24.25 168.93-25.05 170.18-25.85 171.43-25.85L171.43-25.85Q172.23-25.85 172.76-25.5 173.28-25.15 173.28-24.2L173.28-24.2Q173.28-23.25 172.21-22.33 171.13-21.4 169.88-21.4ZM197.78 1.55L197.78 1.55Q195.98 1.55 195.13 0.45 194.28-0.65 194.28-2.2L194.28-2.2Q194.28-3.4 194.66-4.63 195.03-5.85 195.38-7.03 195.73-8.2 195.73-9.1L195.73-9.1Q195.73-10.05 195.33-10.43 194.93-10.8 194.38-10.8L194.38-10.8Q193.18-10.8 191.68-8.93 190.18-7.05 187.88-3.55L187.88-3.55Q187.08-2.35 186.48-1.1 185.88 0.15 185.38 1.1L185.38 1.1Q184.93 1.1 184.31 1 183.68 0.9 183.18 0.65 182.68 0.4 182.68 0L182.68 0Q182.68-0.35 183.16-1.68 183.63-3 184.25-4.75 184.88-6.5 185.38-8.28 185.88-10.05 185.88-11.3L185.88-11.3Q185.88-12.1 185.6-12.6 185.33-13.1 184.68-13.1L184.68-13.1Q183.58-13.1 182.06-11.8 180.53-10.5 178.91-8.38 177.28-6.25 175.81-3.73 174.33-1.2 173.43 1.35L173.43 1.35Q172.98 1.35 172.28 1.18 171.58 1 171.06 0.73 170.53 0.45 170.53 0.2L170.53 0.2Q170.53 0 171-1.45 171.48-2.9 172.08-4.98 172.68-7.05 173.23-9.2 173.78-11.35 173.88-12.95L173.88-12.95Q174.13-13.4 174.88-13.78 175.63-14.15 176.33-14.15L176.33-14.15Q177.03-14.15 177.43-13.75 177.83-13.35 177.83-12.7L177.83-12.7Q177.83-12.1 177.5-10.75 177.18-9.4 176.73-7.7L176.73-7.7Q177.73-9.25 178.98-10.83 180.23-12.4 181.58-13.7 182.93-15 184.31-15.8 185.68-16.6 186.98-16.6L186.98-16.6Q188.63-16.6 189.23-15.4 189.83-14.2 189.83-12.65L189.83-12.65Q189.83-11.6 189.63-10.48 189.43-9.35 189.13-8.38 188.83-7.4 188.53-6.65L188.53-6.65Q189.53-8.35 190.75-9.93 191.98-11.5 193.43-12.5 194.88-13.5 196.48-13.5L196.48-13.5Q198.18-13.5 198.86-12.48 199.53-11.45 199.53-10.1L199.53-10.1Q199.53-8.8 199.08-7.3 198.63-5.8 198.18-4.4 197.73-3 197.73-2L197.73-2Q197.73-1.4 198.03-0.9 198.33-0.4 199.13-0.4L199.13-0.4Q200.53-0.4 201.75-1.68 202.98-2.95 204.06-4.78 205.13-6.6 205.88-8.3L205.88-8.3 206.53-7.45Q205.73-5.4 204.48-3.3 203.23-1.2 201.56 0.18 199.88 1.55 197.78 1.55ZM208.23 1.6L208.23 1.6Q206.03 1.6 205.15 0.23 204.28-1.15 204.28-3L204.28-3Q204.28-4.55 204.78-6.23 205.28-7.9 206.13-9.35 206.98-10.8 208.03-11.68 209.08-12.55 210.13-12.55L210.13-12.55Q210.43-12.55 210.75-12.48 211.08-12.4 211.33-12.25L211.33-12.25Q210.83-11.7 210.2-10.63 209.58-9.55 209.03-8.22 208.48-6.9 208.13-5.58 207.78-4.25 207.78-3.3L207.78-3.3Q207.78-1.95 208.25-1.28 208.73-0.6 209.58-0.6L209.58-0.6Q210.58-0.6 211.98-1.73 213.38-2.85 214.73-4.45L214.73-4.45Q213.28-5.7 212.53-7.53 211.78-9.35 211.78-11.5L211.78-11.5Q211.78-12.95 212.33-14.35 212.88-15.75 214-16.68 215.13-17.6 216.83-17.6L216.83-17.6Q218.93-17.6 219.68-16.48 220.43-15.35 220.43-13.7L220.43-13.7Q220.43-11.75 219.48-9.4 218.53-7.05 217.08-4.9L217.08-4.9Q217.88-4.5 218.83-4.5L218.83-4.5Q219.63-4.5 220.63-4.83 221.63-5.15 222.63-5.95 223.63-6.75 224.23-8.15L224.23-8.15 224.93-7.6Q223.88-5.15 222.05-4.13 220.23-3.1 218.53-3.1L218.53-3.1Q217.88-3.1 217.28-3.23 216.68-3.35 216.13-3.55L216.13-3.55Q214.43-1.4 212.33 0.1 210.23 1.6 208.23 1.6ZM215.78-5.85L215.78-5.85Q216.98-7.7 217.83-9.7 218.68-11.7 218.68-13.5L218.68-13.5Q218.68-14.85 218.28-15.48 217.88-16.1 217.18-16.1L217.18-16.1Q216.23-16.1 215.18-14.68 214.13-13.25 214.13-11.1L214.13-11.1Q214.13-9.8 214.55-8.3 214.98-6.8 215.78-5.85ZM239.58 1L239.58 1Q237.73 1 236.8 0.08 235.88-0.85 235.88-2.3L235.88-2.3Q235.88-3.3 236.25-4.45 236.63-5.6 236.98-6.8 237.33-8 237.33-9.1L237.33-9.1Q237.33-10.4 236.78-10.9 236.23-11.4 235.43-11.4L235.43-11.4Q233.88-11.4 232.28-10.15 230.68-8.9 229.2-6.95 227.73-5 226.43-2.95 225.13-0.9 224.13 0.75L224.13 0.75Q223.28 0.75 222.5 0.45 221.73 0.15 221.28-0.45L221.28-0.45Q221.28-0.7 221.8-2 222.33-3.3 223.03-5.15 223.73-7 224.25-9 224.78-11 224.78-12.6L224.78-12.6Q225.08-13 225.75-13.35 226.43-13.7 227.18-13.7L227.18-13.7Q228.68-13.7 228.68-12.35L228.68-12.35Q228.68-11.6 228.3-9.98 227.93-8.35 227.33-6.45L227.33-6.45Q228.63-8.4 230.28-10.28 231.93-12.15 233.75-13.38 235.58-14.6 237.38-14.6L237.38-14.6Q239.43-14.6 240.35-13.18 241.28-11.75 241.28-10.05L241.28-10.05Q241.28-8.5 240.78-7.2 240.28-5.9 239.75-4.7 239.23-3.5 239.23-2.3L239.23-2.3Q239.23-1.3 239.65-0.93 240.08-0.55 240.63-0.55L240.63-0.55Q241.88-0.55 243.15-1.7 244.43-2.85 245.6-4.65 246.78-6.45 247.68-8.3L247.68-8.3 248.33-7.6Q247.28-5.15 245.95-3.23 244.63-1.3 243.05-0.15 241.48 1 239.58 1Z" opacity="1" transform="matrix(1,0,0,1,0,0)" fill="#ffffff" class="undefined-text-1" data-fill-palette-color="secondary" id="text-1"></path></svg></g></svg></g></svg></g></svg></g><g><svg viewBox="0 0 166.12333598655678 101.27169609691106" height="101.27169609691106" width="166.12333598655678"><g><svg xmlns="http://www.w3.org/2000/svg" xmlns:xlink="http://www.w3.org/1999/xlink" version="1.1" x="0" y="0" viewBox="0 0 99.99876403808594 60.96099853515625" enable-background="new 0 0 100 100" xml:space="preserve" height="101.27169609691106" width="166.12333598655678" class="icon-icon-0" data-fill-palette-color="accent" id="icon-0"><path fill-rule="evenodd" clip-rule="evenodd" d="M0 39.844c2.843-0.592 5.438-1.747 7.792-3.443 1.539-1.107 2.78-2.488 3.789-4.093 2.609-4.148 5.604-8.009 8.778-11.737 1.859-2.183 3.465-4.557 5.098-6.91 0.92-1.325 1.829-2.661 2.993-3.792 0.936-0.909 1.987-1.62 3.306-1.84 1.209-0.202 2.37 0.03 3.491 0.463 1.107 0.428 2.195 0.906 3.293 1.356 0.949 0.389 1.96 0.506 2.963 0.622 2.916 0.336 5.835 0.64 8.753 0.95 0.158 0.017 0.331-0.009 0.484-0.056C63.008 7.636 75.273 3.903 87.54 0.17c0.195-0.06 0.393-0.114 0.589-0.17 0.331 0 0.662 0 0.993 0 0.355 0.126 0.727 0.221 1.064 0.384 0.892 0.431 1.493 1.138 1.781 2.083 2.626 8.611 5.247 17.223 7.864 25.836 0.596 1.961-0.438 3.842-2.434 4.45-5.303 1.617-10.606 3.231-15.91 4.845-7.229 2.2-14.459 4.399-21.688 6.599-2.021 0.615-3.896-0.389-4.503-2.411-0.032-0.106-0.07-0.211-0.12-0.358-0.347 0.397-0.663 0.771-0.991 1.134-0.977 1.083-2.016 1.3-3.348 0.706-0.885-0.395-1.568-1.024-2.121-1.808-0.064-0.091-0.125-0.184-0.212-0.312-0.334 0.229-0.652 0.437-0.958 0.659-0.586 0.423-1.149 0.881-1.752 1.278-0.937 0.616-1.881 0.5-2.744-0.146-1.359-1.02-1.946-2.445-2.025-4.108-0.01-0.215-0.001-0.431-0.001-0.742-0.201 0.292-0.356 0.514-0.507 0.739-1.046 1.563-2.076 3.138-3.142 4.687-1.19 1.73-2.637 3.204-4.446 4.305-1.128 0.687-2.216 1.441-3.363 2.095-0.967 0.551-2.043 0.826-3.156 0.931-0.12 0.011-0.244 0.048-0.354 0.1-3.823 1.798-7.502 3.842-10.886 6.39-1.357 1.022-2.628 2.141-3.752 3.42-0.054 0.062-0.11 0.121-0.187 0.205-0.689-0.63-1.365-1.247-2.077-1.896 3.34-3.779 7.544-6.362 11.91-8.788-1.932-0.688-3.826-1.362-5.72-2.036 0.005-0.021 0.01-0.042 0.016-0.062 0.839 0.045 1.678 0.085 2.516 0.138 1.413 0.089 2.825 0.192 4.238 0.278 0.948 0.058 1.897 0.144 2.845 0.136 1.99-0.016 3.75-0.726 5.345-1.889 0.71-0.518 1.431-1.021 2.157-1.516 1.264-0.861 2.205-2.027 3.049-3.271 1.212-1.787 2.363-3.616 3.581-5.4 0.57-0.834 1.208-1.626 1.861-2.398 0.811-0.959 1.831-1.612 3.043-1.991 2.237-0.698 4.466-1.422 6.687-2.169 1.853-0.624 3.653-1.384 5.317-2.422 0.866-0.541 1.729-1.113 2.354-1.943 1.666-2.213 0.729-4.899-1.948-5.617-0.851-0.228-1.714-0.223-2.585-0.135-2.397 0.244-4.729 0.762-6.965 1.667-3.007 1.218-5.863 2.713-8.472 4.665-1.642 1.228-3.455 2.154-5.415 2.761-1.104 0.342-2.239 0.58-3.35 0.901-2.614 0.755-4.923 2.07-6.95 3.878-1.258 1.122-2.495 2.266-3.742 3.399-0.106 0.097-0.215 0.19-0.362 0.261 0.054-0.092 0.105-0.186 0.163-0.276 0.938-1.461 1.857-2.934 2.819-4.379 0.865-1.301 2.04-2.294 3.301-3.196 1.858-1.329 3.956-2.082 6.151-2.603 1.13-0.268 2.215-0.657 3.265-1.15 0.205-0.097 0.263-0.201 0.224-0.425-0.159-0.895-0.418-1.756-0.932-2.51-1.297-1.907-1.775-4.02-1.654-6.296 0.019-0.357 0.003-0.716 0.003-1.075 0.028-0.003 0.057-0.006 0.086-0.009 0.133 0.576 0.266 1.151 0.397 1.727 0.394 1.721 1.09 3.282 2.309 4.597 0.402 0.434 0.71 0.957 1.115 1.512 0-1.069 0-2.083 0-3.095 0.048-0.005 0.096-0.011 0.144-0.016 0.298 1.334 0.596 2.668 0.894 4 1.238-0.829 2.502-1.675 3.758-2.516-0.238-0.702-0.499-1.428-0.729-2.164-0.312-0.995-0.251-1.976 0.172-2.932 0.016-0.034 0.04-0.065 0.097-0.156-0.011 0.243-0.003 0.418-0.029 0.587-0.108 0.727 0.054 1.405 0.41 2.029 0.397 0.697 0.834 1.371 1.264 2.069 2.102-1.09 4.172-2.062 6.41-2.722-0.149-0.5-0.292-0.982-0.436-1.463-0.099-0.327-0.195-0.653-0.3-0.977-0.224-0.689-0.214-1.381-0.019-2.112-0.587-0.062-1.15-0.113-1.712-0.184-2.244-0.284-4.493-0.541-6.729-0.875-1.223-0.183-2.32-0.789-3.457-1.253-0.733-0.299-1.483-0.574-2.246-0.785-0.862-0.239-1.691-0.057-2.341 0.558-0.673 0.636-1.337 1.302-1.887 2.043-1.335 1.802-2.552 3.692-3.907 5.478-1.599 2.107-3.266 4.165-4.952 6.204-2.259 2.729-4.33 5.595-6.205 8.594-2.153 3.444-5.184 5.79-8.848 7.399-1.458 0.641-2.959 1.152-4.57 1.44-0.138-0.632-0.27-1.254-0.41-1.874C0.133 40.477 0.062 40.255 0 40.031 0 39.968 0 39.907 0 39.844zM54.99 31.133c1.005 3.299 2.005 6.588 3.009 9.875 0.152 0.499 0.498 0.655 1.047 0.488 12.493-3.804 24.986-7.609 37.479-11.413 0.615-0.188 0.771-0.479 0.582-1.097-2.59-8.502-5.181-17.005-7.771-25.507-0.191-0.626-0.471-0.777-1.085-0.59-10.834 3.299-21.668 6.597-32.502 9.896-1.688 0.514-3.377 1.027-5.065 1.544-0.485 0.149-0.666 0.473-0.525 0.947 0.236 0.792 0.478 1.581 0.731 2.367 0.023 0.072 0.156 0.166 0.227 0.157 0.778-0.099 1.554-0.224 2.332-0.328 1.455-0.194 2.892-0.132 4.275 0.399 2.943 1.129 4.483 3.772 3.902 6.786-0.327 1.694-1.268 3.042-2.655 4.053-0.8 0.583-1.643 1.107-2.484 1.628C56.016 30.631 55.507 30.862 54.99 31.133zM52.352 32.119c-0.243 0.156-0.505 0.233-0.616 0.408-1.203 1.882-1.676 3.963-1.508 6.171 0.075 0.983 0.627 1.752 1.495 2.268 0.268 0.159 0.486 0.173 0.691-0.103 0.576-0.779 1.168-1.547 1.738-2.331 0.063-0.086 0.066-0.255 0.033-0.367-0.3-1.02-0.614-2.035-0.924-3.051C52.967 34.147 52.674 33.181 52.352 32.119zM48.527 33.43c-1.171 0.365-2.283 0.707-3.389 1.063-0.102 0.033-0.195 0.147-0.256 0.246-0.589 0.945-1.019 1.961-1.286 3.04-0.27 1.085-0.097 2.09 0.653 2.961 0.176 0.205 0.327 0.244 0.566 0.066 0.803-0.597 1.606-1.197 2.444-1.74 0.341-0.221 0.48-0.419 0.471-0.841C47.694 36.609 47.979 35.038 48.527 33.43z" fill="#ffffff" data-fill-palette-color="accent"></path><path fill-rule="evenodd" clip-rule="evenodd" d="M54.18 20.656c-0.78 0.464-1.556 0.936-2.344 1.386-0.216 0.123-0.271 0.239-0.223 0.488 0.227 1.156 0.438 2.313 0.959 3.386 0.482 0.992 1.145 1.342 2.217 1.098 0.449-0.103 0.886-0.272 1.314-0.445 0.199-0.081 0.256-0.014 0.31 0.158-0.696 0.502-1.442 0.855-2.305 0.919-0.997 0.074-1.675-0.43-2.16-1.235-0.809-1.339-1.202-2.825-1.485-4.345-0.075-0.401 0.06-0.572 0.455-0.668 1.081-0.263 2.162-0.524 3.243-0.786C54.168 20.627 54.174 20.641 54.18 20.656z" fill="#ffffff" data-fill-palette-color="accent"></path></svg></g></svg></g></svg></g></svg><rect width="395.52" height="68.53784133891394" fill="none" stroke="none" visibility="hidden"></rect></g></svg></g></svg>